<svg width="116" height="53" viewBox="0 0 116 53" fill="none" xmlns="http://www.w3.org/2000/svg">
<path fill-rule="evenodd" clip-rule="evenodd" d="M114.582 17.7312C112.682 16.7563 109.607 16.7563 107.717 17.7312L57.9971 45.956L8.28687 17.7312C6.39168 16.7563 3.3166 16.7563 1.4214 17.7312C-0.4738 18.7312 -0.4738 20.3311 1.4214 21.3061L54.3274 51.3311C55.3379 51.8561 56.6772 52.0812 57.9971 52.0312C59.3218 52.0812 60.6609 51.8561 61.6762 51.3311L114.582 21.3061C116.473 20.3311 116.473 18.7312 114.582 17.7312Z" fill="#414141"/>
<path fill-rule="evenodd" clip-rule="evenodd" d="M114.582 0.73125C112.682 -0.24375 109.607 -0.24375 107.717 0.73125L57.9971 28.956L8.28687 0.73125C6.39168 -0.24375 3.3166 -0.24375 1.4214 0.73125C-0.4738 1.73125 -0.4738 3.33108 1.4214 4.30608L54.3274 34.3311C55.3379 34.8561 56.6772 35.0812 57.9971 35.0312C59.3218 35.0812 60.6609 34.8561 61.6762 34.3311L114.582 4.30608C116.473 3.33108 116.473 1.73125 114.582 0.73125Z" fill="#414141"/>
</svg>
