<svg width="116" height="53" viewBox="0 0 116 53" fill="none" xmlns="http://www.w3.org/2000/svg">
<path fill-rule="evenodd" clip-rule="evenodd" d="M1.41777 34.3067C3.3178 35.2817 6.39259 35.2817 8.28295 34.3067L58.0029 6.08192L107.713 34.3067C109.608 35.2817 112.683 35.2817 114.579 34.3067C116.474 33.3067 116.474 31.7069 114.579 30.7319L61.6726 0.706863C60.6622 0.181862 59.3228 -0.0432129 58.0029 0.00679016C56.6782 -0.0432129 55.3391 0.181862 54.3238 0.706863L1.41777 30.7319C-0.472595 31.7069 -0.472595 33.3067 1.41777 34.3067Z" fill="#414141"/>
<path fill-rule="evenodd" clip-rule="evenodd" d="M1.41777 51.3067C3.3178 52.2817 6.39259 52.2817 8.28295 51.3067L58.0029 23.0819L107.713 51.3067C109.608 52.2817 112.683 52.2817 114.579 51.3067C116.474 50.3067 116.474 48.7069 114.579 47.7319L61.6726 17.7069C60.6622 17.1819 59.3228 16.9568 58.0029 17.0068C56.6782 16.9568 55.3391 17.1819 54.3238 17.7069L1.41777 47.7319C-0.472595 48.7069 -0.472595 50.3067 1.41777 51.3067Z" fill="#414141"/>
</svg>
